<mxfile host="app.diagrams.net" modified="2024-01-10T12:37:46.957Z" agent="Mozilla/5.0 (Windows NT 10.0; Win64; x64) AppleWebKit/537.36 (KHTML, like Gecko) Chrome/120.0.0.0 Safari/537.36" version="22.1.18" etag="C8OWcQFNN9bCUAFQoX25" type="github">
  <diagram name="PÃ¡gina-1" id="99_gsA7bz59cimkcGOWV">
    <mxGraphModel>
      <root>
        <mxCell id="0" />
        <mxCell id="1" parent="0" />
      </root>
    </mxGraphModel>
  </diagram>
</mxfile>
